<?xml version="1.0" standalone="no"?>
<!DOCTYPE svg PUBLIC "-//W3C//DTD SVG 20010904//EN"
 "http://www.w3.org/TR/2001/REC-SVG-20010904/DTD/svg10.dtd">
<svg version="1.0" xmlns="http://www.w3.org/2000/svg"
 width="3464.000000pt" height="3464.000000pt" viewBox="0 0 3464.000000 3464.000000"
 preserveAspectRatio="xMidYMid meet">

<g transform="translate(0.000000,3464.000000) scale(0.100000,-0.100000)"
fill="#000000" stroke="none">
<path d="M3590 23905 l0 -2635 1320 0 1320 0 0 1320 0 1320 2630 0 2630 0 0
-6585 0 -6585 -1317 -2 -1318 -3 0 -1315 0 -1315 3953 -3 3952 -2 0 1320 0
1320 -1315 0 -1315 0 0 6585 0 6585 2635 0 2635 0 0 -1320 0 -1320 1310 0
1310 0 0 2635 0 2635 -9215 0 -9215 0 0 -2635z"/>
<path d="M16912 18438 l3 -793 798 -3 797 -2 0 -4770 0 -4770 790 0 790 0 0
4770 0 4770 785 0 785 0 0 -1590 0 -1590 805 0 805 0 0 -1585 0 -1585 795 0
795 0 0 1585 0 1585 805 0 805 0 0 1590 0 1590 785 0 785 0 0 -4770 0 -4770
795 0 795 0 0 4770 0 4770 795 0 795 0 0 795 0 795 -2385 0 -2385 0 0 -795 0
-795 -800 0 -800 0 0 -1590 0 -1590 -780 0 -780 0 0 1590 0 1590 -805 0 -805
0 0 795 0 795 -2385 0 -2385 0 2 -792z"/>
</g>
</svg>
